<?xml version="1.0" standalone="no"?>
<!DOCTYPE svg PUBLIC "-//W3C//DTD SVG 20010904//EN"
 "http://www.w3.org/TR/2001/REC-SVG-20010904/DTD/svg10.dtd">
<svg version="1.0" xmlns="http://www.w3.org/2000/svg"
 width="200.000000pt" height="200.000000pt" viewBox="0 0 200.000000 200.000000"
 preserveAspectRatio="xMidYMid meet">
<metadata>
Created by potrace 1.14, written by Peter Selinger 2001-2017
</metadata>
<g transform="translate(0.000000,200.000000) scale(0.100000,-0.100000)"
fill="#000000" stroke="none">
<path d="M970 1973 c-7 -16 -35 -82 -61 -148 l-48 -120 -68 -16 c-37 -8 -92
-23 -121 -33 l-52 -18 -58 53 c-116 107 -228 160 -339 161 -108 1 -163 -54
-163 -160 0 -61 23 -159 49 -211 18 -34 18 -34 -11 -81 -62 -100 -72 -232 -24
-336 19 -41 25 -66 20 -89 -3 -18 -7 -53 -8 -77 -2 -24 -10 -55 -19 -69 -40
-63 -51 -187 -23 -281 31 -108 151 -203 266 -212 29 -2 56 -8 60 -12 5 -5 23
-45 41 -89 58 -141 101 -189 195 -220 43 -14 100 -16 414 -13 l365 3 54 30
c66 36 102 84 149 197 39 95 48 109 67 102 21 -9 131 23 172 50 75 47 119 111
137 197 15 77 6 173 -24 233 -12 26 -24 66 -26 89 -2 23 -6 56 -9 72 -3 20 2
46 15 73 28 57 43 145 36 203 -6 49 -41 138 -69 173 -13 18 -12 25 8 70 46
105 58 226 27 286 -25 50 -70 72 -145 72 -110 -1 -222 -54 -339 -161 l-57 -52
-83 24 c-46 14 -101 29 -122 33 -33 8 -41 15 -52 46 -7 21 -34 87 -59 148 -50
118 -70 135 -95 83z m63 -128 c31 -76 33 -92 10 -117 -31 -35 -103 -12 -103
33 0 23 51 149 60 149 4 0 18 -29 33 -65z m-660 -73 c119 -59 236 -173 344
-336 61 -93 135 -235 131 -254 -2 -8 -15 -16 -29 -18 -20 -2 -45 16 -120 88
-216 206 -333 267 -484 255 l-72 -6 -16 52 c-39 123 -29 224 25 247 47 20 150
7 221 -28z m1472 28 c57 -22 68 -120 28 -247 l-16 -52 -72 6 c-151 12 -257
-43 -473 -245 -57 -53 -107 -97 -113 -96 -5 1 -18 2 -30 3 -30 2 -20 34 47
156 103 185 249 356 364 423 93 55 201 76 265 52z m-746 -158 c2 -58 -27 -89
-90 -99 -34 -5 -84 19 -100 49 -14 26 -14 87 0 101 6 6 18 3 32 -7 32 -22 91
-20 120 3 22 18 25 18 31 3 4 -9 7 -32 7 -50z m-262 -7 c-4 -8 -12 -41 -18
-73 -11 -52 -10 -66 5 -105 51 -135 228 -166 320 -57 45 54 53 123 25 207 -6
19 -8 37 -4 41 6 6 173 -32 182 -42 3 -2 -16 -30 -40 -63 -61 -80 -108 -154
-151 -242 l-37 -73 -22 20 c-63 57 -131 57 -194 0 l-22 -20 -35 71 c-44 86
-94 166 -154 244 -24 32 -43 60 -41 61 2 2 27 10 54 19 97 31 140 35 132 12z
m128 -131 c53 -10 101 3 135 38 17 17 34 28 37 24 3 -3 6 -25 7 -49 1 -105
-122 -175 -215 -121 -59 35 -76 71 -71 157 l2 28 35 -35 c20 -21 49 -38 70
-42z m-648 -48 c2 -2 -6 -15 -17 -29 -97 -123 -45 -323 103 -398 49 -26 143
-36 188 -20 52 18 47 3 -7 -21 -76 -34 -169 -36 -236 -6 -76 36 -113 71 -148
142 -51 104 -40 216 32 308 23 30 33 36 56 32 14 -3 28 -7 29 -8z m1445 -16
c11 -11 31 -46 45 -76 64 -141 2 -301 -147 -380 -52 -27 -168 -29 -228 -3 -67
28 -90 53 -31 32 57 -19 141 -12 198 16 146 75 195 257 105 391 -17 24 -20 36
-12 41 18 11 49 2 70 -21z m-1322 -32 l55 -32 -34 -7 c-100 -21 -156 -142
-109 -237 22 -43 14 -41 -15 6 -37 58 -50 107 -42 162 7 52 56 140 77 140 7 0
38 -14 68 -32z m1234 -21 c52 -84 42 -189 -24 -267 l-21 -25 17 35 c49 98 -5
218 -107 239 l-34 7 55 32 c30 18 62 31 70 29 8 -1 27 -24 44 -50z m-1518 5
c-20 -38 -34 -120 -29 -172 21 -227 264 -368 466 -272 34 17 74 42 90 56 25
24 27 25 27 7 0 -40 -113 -111 -200 -126 -72 -13 -92 -12 -155 2 -235 54 -347
317 -215 504 27 37 35 38 16 1z m1722 -35 c57 -115 47 -242 -29 -341 -91 -119
-253 -168 -400 -122 -72 23 -153 83 -157 116 -2 22 -1 23 10 10 71 -86 217
-123 339 -87 179 53 278 258 211 435 -24 62 -7 54 26 -11z m-1310 -47 c95 -58
59 -208 -53 -223 -111 -15 -181 120 -106 207 35 40 107 47 159 16z m1000 0
c53 -32 71 -114 37 -166 -68 -104 -229 -57 -227 65 2 98 105 153 190 101z
m-510 -85 c43 -36 48 -68 17 -101 -13 -14 -27 -43 -31 -63 -9 -60 -12 -62 -46
-59 -29 3 -32 7 -44 57 -7 34 -20 61 -34 71 -16 12 -20 22 -15 43 9 36 60 77
95 77 16 0 42 -11 58 -25z m-338 -67 c0 -20 -75 -83 -118 -100 l-41 -16 48 47
c38 37 50 57 56 91 l7 44 24 -27 c13 -16 24 -33 24 -39z m666 -69 c15 -16 33
-29 40 -29 7 0 15 -4 19 -9 10 -18 -59 8 -99 36 -21 16 -45 40 -54 55 -15 26
-15 28 8 52 l23 26 17 -51 c10 -27 30 -63 46 -80z m-497 10 c12 -11 21 -25 22
-32 6 -63 -26 -107 -78 -107 -87 0 -112 120 -32 154 37 16 59 12 88 -15z m353
-24 c22 -50 -10 -104 -67 -112 -33 -4 -44 -1 -62 19 -23 25 -31 61 -20 94 7
19 31 36 67 47 23 6 69 -21 82 -48z m-155 -127 c10 -8 26 -20 37 -25 16 -9 13
-12 -25 -28 -56 -22 -142 -22 -197 0 l-43 18 29 17 c17 10 32 22 35 27 9 15
145 8 164 -9z m-907 -23 c19 -22 105 -65 160 -80 63 -17 177 -10 244 15 31 12
78 39 105 60 54 43 53 43 129 -22 52 -45 99 -60 182 -60 83 0 130 16 182 60
61 52 85 63 98 47 25 -30 114 -79 173 -95 134 -37 271 -6 376 83 18 15 35 26
38 24 10 -10 4 -185 -7 -225 -34 -112 -159 -180 -246 -134 -11 6 -46 38 -79
72 -33 34 -80 75 -104 91 l-45 29 -386 0 -386 0 -45 -29 c-24 -16 -73 -58
-108 -95 -75 -77 -114 -94 -179 -77 -91 25 -151 116 -153 233 -3 128 -1 140
19 129 10 -5 25 -17 32 -26z m-19 -308 c61 -70 162 -96 232 -61 18 9 68 52
113 95 44 43 93 83 108 89 17 6 163 10 388 10 305 0 365 -2 393 -16 18 -8 63
-47 100 -85 75 -77 127 -109 176 -109 98 0 191 72 226 176 l20 59 8 -49 c31
-197 -86 -348 -270 -348 -77 0 -132 24 -200 87 -85 79 -75 77 -457 76 -380 0
-372 1 -453 -76 -67 -63 -124 -88 -201 -88 -105 1 -200 58 -246 147 -24 46
-34 134 -23 202 l8 49 19 -57 c11 -31 37 -76 59 -101z m1207 -137 c37 -23 92
-76 92 -89 0 -21 -52 -119 -72 -138 -47 -42 -56 -43 -390 -43 -312 0 -324 1
-358 21 -44 27 -54 41 -81 112 l-22 59 39 35 c69 63 67 62 429 63 313 0 332
-1 363 -20z m-840 -172 c34 -74 70 -112 120 -129 43 -14 627 -19 682 -6 64 16
99 47 136 123 l34 72 36 -11 c20 -6 38 -16 40 -22 6 -14 -59 -167 -87 -206
-11 -16 -41 -41 -67 -56 l-47 -28 -375 0 -375 0 -47 28 c-26 15 -56 40 -67 56
-21 29 -91 185 -91 202 0 8 53 36 72 38 4 1 21 -27 36 -61z"/>
<path d="M444 1267 c-35 -30 -36 -80 -1 -114 52 -53 137 -17 137 57 0 72 -79
105 -136 57z m86 -32 c7 -8 10 -25 6 -40 -5 -20 -13 -25 -36 -25 -23 0 -31 5
-36 25 -7 29 10 55 36 55 10 0 23 -7 30 -15z"/>
<path d="M1444 1267 c-35 -30 -36 -80 -1 -114 60 -60 162 0 135 80 -21 58 -87
75 -134 34z m90 -39 c15 -25 -3 -52 -37 -56 -21 -3 -28 2 -33 22 -12 49 43 76
70 34z"/>
</g>
</svg>
